OstrichSans-InlineItalic.ufo
<glyph name="exclam" format="1">
  <advance width="130"/>
  <unicode hex="0021"/>
  <outline>
    <contour>
      <point x="39" y="58" type="line"/>
      <point x="57" y="58" type="line"/>
      <point x="49" y="28" type="line"/>
      <point x="31" y="28" type="line"/>
    </contour>
    <contour>
      <point x="204" y="647" type="line"/>
      <point x="78" y="141" type="line"/>
      <point x="60" y="141" type="line"/>
      <point x="186" y="647" type="line"/>
    </contour>
    <contour>
      <point x="165" y="675" type="line"/>
      <point x="25" y="114" type="line"/>
      <point x="99" y="114" type="line"/>
      <point x="239" y="675" type="line"/>
    </contour>
    <contour>
      <point x="-2" y="1" type="line"/>
      <point x="71" y="1" type="line"/>
      <point x="92" y="85" type="line"/>
      <point x="18" y="85" type="line"/>
    </contour>
  </outline>
</glyph>
<glyph name="quotedbl" format="1">
  <advance width="201"/>
  <unicode hex="0022"/>
  <outline>
    <contour>
      <point x="301" y="647" type="line"/>
      <point x="283" y="576" type="line"/>
      <point x="265" y="576" type="line"/>
      <point x="283" y="647" type="line"/>
    </contour>
    <contour>
      <point x="188" y="647" type="line"/>
      <point x="206" y="647" type="line"/>
      <point x="188" y="576" type="line"/>
      <point x="170" y="576" type="line"/>
    </contour>
    <contour>
      <point x="135" y="548" type="line"/>
      <point x="209" y="548" type="line"/>
      <point x="241" y="674" type="line"/>
      <point x="167" y="674" type="line"/>
    </contour>
    <contour>
      <point x="263" y="674" type="line"/>
      <point x="231" y="548" type="line"/>
      <point x="304" y="548" type="line"/>
      <point x="336" y="674" type="line"/>
    </contour>
  </outline>
</glyph>
<glyph name="parenleft" format="1">
  <advance width="186"/>
  <unicode hex="0028"/>
  <outline>
    <contour>
      <point x="115" y="33" type="line"/>
      <point x="64" y="120"/>
      <point x="85" y="252"/>
      <point x="107" y="339" type="curve" smooth="yes"/>
      <point x="129" y="427"/>
      <point x="174" y="556"/>
      <point x="269" y="644" type="curve"/>
      <point x="274" y="625" type="line"/>
      <point x="200" y="554"/>
      <point x="149" y="420"/>
      <point x="129" y="339" type="curve" smooth="yes"/>
      <point x="107" y="252"/>
      <point x="87" y="125"/>
      <point x="131" y="46" type="curve"/>
    </contour>
    <contour>
      <point x="167" y="44" type="line"/>
      <point x="118" y="121"/>
      <point x="127" y="237"/>
      <point x="152" y="339" type="curve" smooth="yes"/>
      <point x="171" y="415"/>
      <point x="222" y="556"/>
      <point x="307" y="619" type="curve"/>
      <point x="289" y="689" type="line"/>
      <point x="166" y="598"/>
      <point x="106" y="432"/>
      <point x="83" y="339" type="curve" smooth="yes"/>
      <point x="60" y="247"/>
      <point x="35" y="84"/>
      <point x="105" y="-6" type="curve"/>
    </contour>
  </outline>
</glyph>
<glyph name="asterisk" format="1">
  <advance width="315"/>
  <unicode hex="002A"/>
  <outline>
    <contour>
      <point x="287" y="527" type="line"/>
      <point x="302" y="501"/>
      <point x="320" y="476"/>
      <point x="337" y="450" type="curve"/>
      <point x="318" y="436" type="line"/>
      <point x="268" y="519" type="line"/>
      <point x="177" y="437" type="line"/>
      <point x="165" y="449" type="line"/>
      <point x="252" y="527" type="line"/>
      <point x="225" y="538"/>
      <point x="198" y="550"/>
      <point x="171" y="561" type="curve"/>
      <point x="182" y="578" type="line"/>
      <point x="264" y="544" type="line"/>
      <point x="289" y="643" type="line"/>
      <point x="308" y="643" type="line"/>
      <point x="283" y="544" type="line"/>
      <point x="385" y="578" type="line"/>
      <point x="386" y="559" type="line"/>
    </contour>
    <contour>
      <point x="416" y="543" type="line"/>
      <point x="410" y="613" type="line"/>
      <point x="320" y="582" type="line"/>
      <point x="342" y="670" type="line"/>
      <point x="269" y="670" type="line"/>
      <point x="247" y="583" type="line"/>
      <point x="174" y="613" type="line"/>
      <point x="133" y="545" type="line"/>
      <point x="189" y="522" type="line" smooth="yes"/>
      <point x="194" y="520"/>
      <point x="198" y="519"/>
      <point x="203" y="516" type="curve"/>
      <point x="125" y="446" type="line"/>
      <point x="171" y="399" type="line"/>
      <point x="257" y="476" type="line"/>
      <point x="306" y="396" type="line"/>
      <point x="374" y="449" type="line"/>
      <point x="345" y="494" type="line"/>
      <point x="331" y="515" type="line"/>
    </contour>
  </outline>
</glyph>
<glyph name="plus" format="1">
  <advance width="346"/>
  <unicode hex="002B"/>
  <outline>
    <contour>
      <point x="349" y="326" type="line"/>
      <point x="239" y="326" type="line"/>
      <point x="209" y="208" type="line"/>
      <point x="191" y="208" type="line"/>
      <point x="221" y="326" type="line"/>
      <point x="113" y="326" type="line"/>
      <point x="117" y="344" type="line"/>
      <point x="225" y="344" type="line"/>
      <point x="255" y="462" type="line"/>
      <point x="273" y="462" type="line"/>
      <point x="243" y="344" type="line"/>
      <point x="353" y="344" type="line"/>
    </contour>
    <contour>
      <point x="387" y="372" type="line"/>
      <point x="278" y="372" type="line"/>
      <point x="307" y="489" type="line"/>
      <point x="233" y="489" type="line"/>
      <point x="204" y="372" type="line"/>
      <point x="96" y="372" type="line"/>
      <point x="78" y="298" type="line"/>
      <point x="186" y="298" type="line"/>
      <point x="157" y="181" type="line"/>
      <point x="231" y="181" type="line"/>
      <point x="260" y="298" type="line"/>
      <point x="369" y="298" type="line"/>
    </contour>
  </outline>
</glyph>
<glyph name="period" format="1">
  <advance width="127"/>
  <unicode hex="002E"/>
  <outline>
    <contour>
      <point x="34" y="28" type="line"/>
      <point x="40" y="49" type="line"/>
      <point x="59" y="49" type="line"/>
      <point x="53" y="28" type="line"/>
    </contour>
    <contour>
      <point x="72" y="0" type="line"/>
      <point x="90" y="76" type="line"/>
      <point x="22" y="76" type="line"/>
      <point x="4" y="0" type="line"/>
    </contour>
  </outline>
</glyph>
<glyph name="one" format="1">
  <advance width="214"/>
  <unicode hex="0031"/>
  <outline>
    <contour>
      <point x="299" y="647" type="line"/>
      <point x="144" y="28" type="line"/>
      <point x="125" y="28" type="line"/>
      <point x="273" y="618" type="line"/>
      <point x="168" y="517" type="line"/>
      <point x="160" y="528" type="line"/>
      <point x="279" y="647" type="line"/>
    </contour>
    <contour>
      <point x="273" y="674" type="line"/>
      <point x="175" y="578" type="line"/>
      <point x="123" y="525" type="line"/>
      <point x="160" y="477" type="line"/>
      <point x="226" y="538" type="line"/>
      <point x="92" y="0" type="line"/>
      <point x="165" y="0" type="line"/>
      <point x="333" y="674" type="line"/>
    </contour>
  </outline>
</glyph>
<glyph name="three" format="1">
  <advance width="324"/>
  <unicode hex="0033"/>
  <outline>
    <contour>
      <point x="278" y="108"/>
      <point x="240" y="23"/>
      <point x="147" y="23" type="curve" smooth="yes"/>
      <point x="48" y="23"/>
      <point x="57" y="112"/>
      <point x="78" y="193" type="curve"/>
      <point x="96" y="193" type="line"/>
      <point x="81" y="127"/>
      <point x="68" y="41"/>
      <point x="152" y="41" type="curve" smooth="yes"/>
      <point x="230" y="41"/>
      <point x="263" y="123"/>
      <point x="279" y="185" type="curve" smooth="yes"/>
      <point x="299" y="268"/>
      <point x="280" y="321"/>
      <point x="195" y="326" type="curve"/>
      <point x="199" y="343" type="line"/>
      <point x="283" y="350"/>
      <point x="335" y="410"/>
      <point x="354" y="489" type="curve" smooth="yes"/>
      <point x="369" y="548"/>
      <point x="376" y="633"/>
      <point x="300" y="633" type="curve" smooth="yes"/>
      <point x="220" y="633"/>
      <point x="185" y="542"/>
      <point x="167" y="480" type="curve"/>
      <point x="149" y="480" type="line"/>
      <point x="169" y="552"/>
      <point x="214" y="651"/>
      <point x="304" y="651" type="curve" smooth="yes"/>
      <point x="392" y="651"/>
      <point x="391" y="560"/>
      <point x="373" y="489" type="curve" smooth="yes"/>
      <point x="358" y="428"/>
      <point x="318" y="354"/>
      <point x="248" y="335" type="curve"/>
      <point x="313" y="317"/>
      <point x="314" y="249"/>
      <point x="298" y="185" type="curve" smooth="yes"/>
    </contour>
    <contour>
      <point x="340" y="241"/>
      <point x="339" y="301"/>
      <point x="307" y="337" type="curve"/>
      <point x="358" y="375"/>
      <point x="388" y="435"/>
      <point x="401" y="489" type="curve" smooth="yes"/>
      <point x="422" y="572"/>
      <point x="421" y="679"/>
      <point x="311" y="679" type="curve" smooth="yes"/>
      <point x="198" y="679"/>
      <point x="141" y="547"/>
      <point x="114" y="453" type="curve"/>
      <point x="186" y="453" type="line"/>
      <point x="204" y="514"/>
      <point x="236" y="605"/>
      <point x="293" y="605" type="curve" smooth="yes"/>
      <point x="346" y="605"/>
      <point x="339" y="537"/>
      <point x="327" y="489" type="curve" smooth="yes"/>
      <point x="311" y="424"/>
      <point x="262" y="376"/>
      <point x="178" y="369" type="curve"/>
      <point x="160" y="299" type="line"/>
      <point x="246" y="295"/>
      <point x="268" y="252"/>
      <point x="252" y="185" type="curve" smooth="yes"/>
      <point x="239" y="135"/>
      <point x="213" y="69"/>
      <point x="159" y="69" type="curve" smooth="yes"/>
      <point x="100" y="69"/>
      <point x="114" y="154"/>
      <point x="128" y="220" type="curve"/>
      <point x="57" y="220" type="line"/>
      <point x="31" y="113"/>
      <point x="16" y="-5"/>
      <point x="140" y="-5" type="curve" smooth="yes"/>
      <point x="256" y="-5"/>
      <point x="303" y="96"/>
      <point x="326" y="185" type="curve" smooth="yes"/>
    </contour>
  </outline>
</glyph>
<glyph name="four" format="1">
  <advance width="344"/>
  <unicode hex="0034"/>
  <outline>
    <contour>
      <point x="402" y="610" type="line"/>
      <point x="116" y="268" type="line"/>
      <point x="316" y="268" type="line"/>
    </contour>
    <contour>
      <point x="429" y="647" type="line"/>
      <point x="274" y="28" type="line"/>
      <point x="256" y="28" type="line"/>
      <point x="311" y="248" type="line"/>
      <point x="91" y="248" type="line"/>
      <point x="96" y="268" type="line"/>
      <point x="411" y="647" type="line"/>
    </contour>
    <contour>
      <point x="402" y="674" type="line"/>
      <point x="70" y="276" type="line"/>
      <point x="56" y="220" type="line"/>
      <point x="277" y="220" type="line"/>
      <point x="223" y="0" type="line"/>
      <point x="296" y="0" type="line"/>
      <point x="464" y="674" type="line"/>
    </contour>
    <contour>
      <point x="296" y="296" type="line"/>
      <point x="171" y="296" type="line"/>
      <point x="349" y="509" type="line"/>
    </contour>
  </outline>
</glyph>
<glyph name="six" format="1">
  <advance width="332"/>
  <unicode hex="0036"/>
  <outline>
    <contour>
      <point x="86" y="160" type="line" smooth="yes"/>
      <point x="71" y="99"/>
      <point x="79" y="41"/>
      <point x="150" y="41" type="curve" smooth="yes"/>
      <point x="221" y="41"/>
      <point x="262" y="123"/>
      <point x="277" y="181" type="curve" smooth="yes"/>
      <point x="298" y="268" type="line" smooth="yes"/>
      <point x="314" y="332"/>
      <point x="318" y="399"/>
      <point x="240" y="399" type="curve" smooth="yes"/>
      <point x="175" y="399"/>
      <point x="130" y="335"/>
      <point x="116" y="278" type="curve" smooth="yes"/>
    </contour>
    <contour>
      <point x="64" y="23"/>
      <point x="49" y="82"/>
      <point x="67" y="155" type="curve" smooth="yes"/>
      <point x="144" y="464" type="line" smooth="yes"/>
      <point x="164" y="542"/>
      <point x="209" y="651"/>
      <point x="308" y="651" type="curve" smooth="yes"/>
      <point x="388" y="651"/>
      <point x="398" y="588"/>
      <point x="381" y="518" type="curve" smooth="yes"/>
      <point x="375" y="496" type="line"/>
      <point x="355" y="496" type="line"/>
      <point x="372" y="559"/>
      <point x="388" y="634"/>
      <point x="304" y="634" type="curve" smooth="yes"/>
      <point x="219" y="634"/>
      <point x="178" y="529"/>
      <point x="162" y="464" type="curve" smooth="yes"/>
      <point x="136" y="357" type="line"/>
      <point x="160" y="392"/>
      <point x="205" y="417"/>
      <point x="244" y="417" type="curve" smooth="yes"/>
      <point x="334" y="417"/>
      <point x="336" y="343"/>
      <point x="317" y="268" type="curve" smooth="yes"/>
      <point x="294" y="176" type="line" smooth="yes"/>
      <point x="277" y="108"/>
      <point x="225" y="23"/>
      <point x="145" y="23" type="curve" smooth="yes"/>
    </contour>
    <contour>
      <point x="239" y="-5"/>
      <point x="301" y="96"/>
      <point x="321" y="176" type="curve" smooth="yes"/>
      <point x="344" y="268" type="line" smooth="yes"/>
      <point x="367" y="357"/>
      <point x="364" y="444"/>
      <point x="251" y="444" type="curve" smooth="yes"/>
      <point x="228" y="444"/>
      <point x="203" y="437"/>
      <point x="179" y="425" type="curve"/>
      <point x="189" y="464" type="line" smooth="yes"/>
      <point x="203" y="518"/>
      <point x="235" y="606"/>
      <point x="297" y="606" type="curve" smooth="yes"/>
      <point x="355" y="606"/>
      <point x="338" y="532"/>
      <point x="321" y="468" type="curve"/>
      <point x="395" y="468" type="line"/>
      <point x="408" y="518" type="line" smooth="yes"/>
      <point x="429" y="602"/>
      <point x="416" y="679"/>
      <point x="315" y="679" type="curve" smooth="yes"/>
      <point x="192" y="679"/>
      <point x="139" y="553"/>
      <point x="117" y="464" type="curve" smooth="yes"/>
      <point x="40" y="155" type="line" smooth="yes"/>
      <point x="18" y="66"/>
      <point x="37" y="-5"/>
      <point x="138" y="-5" type="curve" smooth="yes"/>
    </contour>
    <contour>
      <point x="143" y="278" type="line" smooth="yes"/>
      <point x="154" y="322"/>
      <point x="187" y="372"/>
      <point x="233" y="372" type="curve" smooth="yes"/>
      <point x="288" y="372"/>
      <point x="284" y="319"/>
      <point x="271" y="268" type="curve" smooth="yes"/>
      <point x="250" y="181" type="line" smooth="yes"/>
      <point x="238" y="134"/>
      <point x="207" y="69"/>
      <point x="157" y="69" type="curve" smooth="yes"/>
      <point x="107" y="69"/>
      <point x="102" y="113"/>
      <point x="113" y="160" type="curve" smooth="yes"/>
    </contour>
  </outline>
</glyph>
<glyph name="seven" format="1">
  <advance width="277"/>
  <unicode hex="0037"/>
  <outline>
    <contour>
      <point x="360" y="626" type="line"/>
      <point x="360" y="628" type="line"/>
      <point x="181" y="628" type="line"/>
      <point x="186" y="647" type="line"/>
      <point x="387" y="647" type="line"/>
      <point x="382" y="628" type="line"/>
      <point x="42" y="28" type="line"/>
      <point x="24" y="28" type="line"/>
    </contour>
    <contour>
      <point x="-20" y="0" type="line"/>
      <point x="57" y="0" type="line"/>
      <point x="400" y="601" type="line"/>
      <point x="419" y="674" type="line"/>
      <point x="166" y="674" type="line"/>
      <point x="147" y="601" type="line"/>
      <point x="315" y="601" type="line"/>
    </contour>
  </outline>
</glyph>
<glyph name="semicolon" format="1">
  <advance width="117"/>
  <unicode hex="003B"/>
  <outline>
    <contour>
      <point x="34" y="142" type="line"/>
      <point x="76" y="209" type="line"/>
      <point x="97" y="209" type="line"/>
      <point x="51" y="142" type="line"/>
    </contour>
    <contour>
      <point x="174" y="478" type="line"/>
      <point x="163" y="437" type="line"/>
      <point x="140" y="437" type="line"/>
      <point x="151" y="478" type="line"/>
    </contour>
    <contour>
      <point x="130" y="505" type="line"/>
      <point x="107" y="410" type="line"/>
      <point x="184" y="410" type="line"/>
      <point x="207" y="505" type="line"/>
    </contour>
    <contour>
      <point x="58" y="115" type="line"/>
      <point x="142" y="237" type="line"/>
      <point x="68" y="237" type="line"/>
      <point x="-7" y="115" type="line"/>
    </contour>
  </outline>
</glyph>
<glyph name="equal" format="1">
  <advance width="332"/>
  <unicode hex="003D"/>
  <outline>
    <contour>
      <point x="309" y="243" type="line"/>
      <point x="93" y="243" type="line"/>
      <point x="98" y="261" type="line"/>
      <point x="314" y="261" type="line"/>
    </contour>
    <contour>
      <point x="358" y="440" type="line"/>
      <point x="142" y="440" type="line"/>
      <point x="146" y="457" type="line"/>
      <point x="362" y="457" type="line"/>
    </contour>
    <contour>
      <point x="396" y="485" type="line"/>
      <point x="125" y="485" type="line"/>
      <point x="107" y="412" type="line"/>
      <point x="378" y="412" type="line"/>
    </contour>
    <contour>
      <point x="347" y="288" type="line"/>
      <point x="76" y="288" type="line"/>
      <point x="58" y="216" type="line"/>
      <point x="329" y="216" type="line"/>
    </contour>
  </outline>
</glyph>
<glyph name="greater" format="1">
  <advance width="257"/>
  <unicode hex="003E"/>
  <outline>
    <contour>
      <point x="223" y="647" type="line"/>
      <point x="269" y="337" type="line"/>
      <point x="68" y="28" type="line"/>
      <point x="48" y="28" type="line"/>
      <point x="251" y="337" type="line"/>
      <point x="203" y="647" type="line"/>
    </contour>
    <contour>
      <point x="169" y="674" type="line"/>
      <point x="184" y="575"/>
      <point x="205" y="439"/>
      <point x="221" y="337" type="curve"/>
      <point x="1" y="0" type="line"/>
      <point x="81" y="0" type="line"/>
      <point x="298" y="337" type="line"/>
      <point x="249" y="674" type="line"/>
    </contour>
  </outline>
</glyph>
<glyph name="H" format="1">
  <advance width="348"/>
  <unicode hex="0048"/>
  <outline>
    <contour>
      <point x="440" y="647" type="line"/>
      <point x="285" y="28" type="line"/>
      <point x="266" y="28" type="line"/>
      <point x="341" y="326" type="line"/>
      <point x="129" y="326" type="line"/>
      <point x="54" y="28" type="line"/>
      <point x="37" y="28" type="line"/>
      <point x="192" y="647" type="line"/>
      <point x="209" y="647" type="line"/>
      <point x="133" y="343" type="line"/>
      <point x="345" y="343" type="line"/>
      <point x="421" y="647" type="line"/>
    </contour>
    <contour>
      <point x="401" y="674" type="line"/>
      <point x="325" y="371" type="line"/>
      <point x="168" y="371" type="line"/>
      <point x="244" y="674" type="line"/>
      <point x="171" y="674" type="line"/>
      <point x="3" y="0" type="line"/>
      <point x="76" y="0" type="line"/>
      <point x="150" y="298" type="line"/>
      <point x="307" y="298" type="line"/>
      <point x="233" y="0" type="line"/>
      <point x="306" y="0" type="line"/>
      <point x="474" y="674" type="line"/>
    </contour>
  </outline>
</glyph>
<glyph name="N" format="1">
  <advance width="385"/>
  <unicode hex="004E"/>
  <outline>
    <contour>
      <point x="55" y="28" type="line"/>
      <point x="36" y="28" type="line"/>
      <point x="191" y="647" type="line"/>
      <point x="207" y="647" type="line"/>
      <point x="293" y="85" type="line"/>
      <point x="433" y="647" type="line"/>
      <point x="450" y="647" type="line"/>
      <point x="295" y="28" type="line"/>
      <point x="280" y="28" type="line"/>
      <point x="251" y="215"/>
      <point x="225" y="402"/>
      <point x="196" y="590" type="curve"/>
    </contour>
    <contour>
      <point x="187" y="446" type="line"/>
      <point x="224" y="205"/>
      <point x="240" y="94"/>
      <point x="256" y="0" type="curve"/>
      <point x="317" y="0" type="line"/>
      <point x="485" y="674" type="line"/>
      <point x="412" y="674" type="line"/>
      <point x="300" y="228" type="line"/>
      <point x="232" y="674" type="line"/>
      <point x="171" y="674" type="line"/>
      <point x="3" y="0" type="line"/>
      <point x="76" y="0" type="line"/>
    </contour>
  </outline>
</glyph>
<glyph name="Q" format="1">
  <advance width="393"/>
  <unicode hex="0051"/>
  <outline>
    <contour>
      <point x="201" y="39"/>
      <point x="232" y="47"/>
      <point x="259" y="61" type="curve"/>
      <point x="222" y="123" type="line"/>
      <point x="243" y="123" type="line"/>
      <point x="274" y="73" type="line"/>
      <point x="308" y="105"/>
      <point x="321" y="148"/>
      <point x="331" y="187" type="curve" smooth="yes"/>
      <point x="407" y="491" type="line" smooth="yes"/>
      <point x="426" y="568"/>
      <point x="408" y="636"/>
      <point x="323" y="636" type="curve" smooth="yes"/>
      <point x="238" y="636"/>
      <point x="187" y="568"/>
      <point x="168" y="490" type="curve" smooth="yes"/>
      <point x="94" y="194" type="line" smooth="yes"/>
      <point x="75" y="120"/>
      <point x="89" y="39"/>
      <point x="174" y="39" type="curve" smooth="yes"/>
    </contour>
    <contour>
      <point x="298" y="-8" type="line"/>
      <point x="266" y="48" type="line"/>
      <point x="236" y="30"/>
      <point x="202" y="21"/>
      <point x="170" y="21" type="curve" smooth="yes"/>
      <point x="76" y="21"/>
      <point x="52" y="100"/>
      <point x="74" y="186" type="curve" smooth="yes"/>
      <point x="151" y="495" type="line" smooth="yes"/>
      <point x="173" y="582"/>
      <point x="234" y="653"/>
      <point x="327" y="653" type="curve" smooth="yes"/>
      <point x="422" y="653"/>
      <point x="447" y="582"/>
      <point x="425" y="495" type="curve" smooth="yes"/>
      <point x="348" y="186" type="line" smooth="yes"/>
      <point x="336" y="140"/>
      <point x="322" y="92"/>
      <point x="281" y="57" type="curve"/>
      <point x="320" y="-8" type="line"/>
    </contour>
    <contour>
      <point x="370" y="-36" type="line"/>
      <point x="317" y="57" type="line"/>
      <point x="351" y="96"/>
      <point x="365" y="142"/>
      <point x="376" y="186" type="curve" smooth="yes"/>
      <point x="453" y="495" type="line" smooth="yes"/>
      <point x="479" y="598"/>
      <point x="448" y="681"/>
      <point x="334" y="681" type="curve" smooth="yes"/>
      <point x="222" y="681"/>
      <point x="149" y="598"/>
      <point x="123" y="495" type="curve" smooth="yes"/>
      <point x="46" y="186" type="line" smooth="yes"/>
      <point x="21" y="85"/>
      <point x="50" y="-6"/>
      <point x="163" y="-6" type="curve" smooth="yes"/>
      <point x="192" y="-6"/>
      <point x="221" y="-1"/>
      <point x="250" y="12" type="curve"/>
      <point x="278" y="-36" type="line"/>
    </contour>
    <contour>
      <point x="115" y="66"/>
      <point x="107" y="133"/>
      <point x="122" y="194" type="curve" smooth="yes"/>
      <point x="196" y="490" type="line" smooth="yes"/>
      <point x="211" y="553"/>
      <point x="250" y="608"/>
      <point x="316" y="608" type="curve" smooth="yes"/>
      <point x="382" y="608"/>
      <point x="394" y="553"/>
      <point x="379" y="491" type="curve" smooth="yes"/>
      <point x="303" y="187" type="line" smooth="yes"/>
      <point x="298" y="166"/>
      <point x="291" y="141"/>
      <point x="281" y="121" type="curve"/>
      <point x="264" y="151" type="line"/>
      <point x="171" y="151" type="line"/>
      <point x="216" y="71" type="line"/>
      <point x="204" y="67"/>
      <point x="193" y="66"/>
      <point x="181" y="66" type="curve" smooth="yes"/>
    </contour>
  </outline>
</glyph>
<glyph name="T" format="1">
  <advance width="347"/>
  <unicode hex="0054"/>
  <outline>
    <contour>
      <point x="424" y="629" type="line"/>
      <point x="312" y="629" type="line"/>
      <point x="162" y="28" type="line"/>
      <point x="143" y="28" type="line"/>
      <point x="293" y="629" type="line"/>
      <point x="182" y="629" type="line"/>
      <point x="187" y="647" type="line"/>
      <point x="429" y="647" type="line"/>
    </contour>
    <contour>
      <point x="463" y="675" type="line"/>
      <point x="166" y="675" type="line"/>
      <point x="148" y="602" type="line"/>
      <point x="260" y="602" type="line"/>
      <point x="110" y="1" type="line"/>
      <point x="183" y="1" type="line"/>
      <point x="333" y="602" type="line"/>
      <point x="445" y="602" type="line"/>
    </contour>
  </outline>
</glyph>
<glyph name="W" format="1">
  <advance width="588"/>
  <unicode hex="0057"/>
  <outline>
    <contour>
      <point x="682" y="647" type="line"/>
      <point x="394" y="28" type="line"/>
      <point x="379" y="28" type="line"/>
      <point x="420" y="583" type="line"/>
      <point x="182" y="28" type="line"/>
      <point x="168" y="28" type="line"/>
      <point x="188" y="647" type="line"/>
      <point x="205" y="647" type="line"/>
      <point x="189" y="82" type="line"/>
      <point x="428" y="647" type="line"/>
      <point x="443" y="647" type="line"/>
      <point x="401" y="82" type="line"/>
      <point x="663" y="647" type="line"/>
    </contour>
    <contour>
      <point x="648" y="674" type="line"/>
      <point x="440" y="226" type="line"/>
      <point x="474" y="674" type="line"/>
      <point x="411" y="674" type="line"/>
      <point x="351" y="530"/>
      <point x="284" y="377"/>
      <point x="221" y="226" type="curve"/>
      <point x="234" y="674" type="line"/>
      <point x="161" y="674" type="line"/>
      <point x="140" y="0" type="line"/>
      <point x="200" y="0" type="line"/>
      <point x="256" y="134"/>
      <point x="319" y="279"/>
      <point x="379" y="420" type="curve"/>
      <point x="349" y="0" type="line"/>
      <point x="410" y="0" type="line"/>
      <point x="723" y="674" type="line"/>
    </contour>
  </outline>
</glyph>
<glyph name="Y" format="1">
  <advance width="353"/>
  <unicode hex="0059"/>
  <outline>
    <contour>
      <point x="456" y="647" type="line"/>
      <point x="245" y="312" type="line"/>
      <point x="174" y="28" type="line"/>
      <point x="155" y="28" type="line"/>
      <point x="226" y="312" type="line"/>
      <point x="212" y="424"/>
      <point x="196" y="534"/>
      <point x="184" y="647" type="curve"/>
      <point x="203" y="647" type="line"/>
      <point x="243" y="337" type="line"/>
      <point x="437" y="647" type="line"/>
    </contour>
    <contour>
      <point x="425" y="674" type="line"/>
      <point x="374" y="592"/>
      <point x="317" y="502"/>
      <point x="262" y="416" type="curve"/>
      <point x="229" y="674" type="line"/>
      <point x="151" y="674" type="line"/>
      <point x="157" y="613"/>
      <point x="170" y="512"/>
      <point x="197" y="307" type="curve"/>
      <point x="121" y="0" type="line"/>
      <point x="195" y="0" type="line"/>
      <point x="271" y="307" type="line"/>
      <point x="503" y="674" type="line"/>
    </contour>
  </outline>
</glyph>
<glyph name="Z" format="1">
  <advance width="355"/>
  <unicode hex="005A"/>
  <outline>
    <contour>
      <point x="56" y="46" type="line"/>
      <point x="293" y="46" type="line"/>
      <point x="288" y="28" type="line"/>
      <point x="31" y="28" type="line"/>
      <point x="37" y="51" type="line"/>
      <point x="416" y="627" type="line"/>
      <point x="416" y="628" type="line"/>
      <point x="196" y="628" type="line"/>
      <point x="201" y="647" type="line"/>
      <point x="440" y="647" type="line"/>
      <point x="434" y="624" type="line"/>
      <point x="56" y="48" type="line"/>
    </contour>
    <contour>
      <point x="460" y="618" type="line"/>
      <point x="474" y="674" type="line"/>
      <point x="180" y="674" type="line"/>
      <point x="161" y="601" type="line"/>
      <point x="369" y="601" type="line"/>
      <point x="12" y="57" type="line"/>
      <point x="-2" y="0" type="line"/>
      <point x="310" y="0" type="line"/>
      <point x="328" y="73" type="line"/>
      <point x="103" y="73" type="line"/>
    </contour>
  </outline>
</glyph>
<glyph name="underscore" format="1">
  <advance width="481"/>
  <unicode hex="005F"/>
  <outline>
    <contour>
      <point x="41" y="-2" type="line"/>
      <point x="45" y="16" type="line"/>
      <point x="411" y="16" type="line"/>
      <point x="407" y="-2" type="line"/>
    </contour>
    <contour>
      <point x="427" y="-29" type="line"/>
      <point x="445" y="43" type="line"/>
      <point x="25" y="43" type="line"/>
      <point x="7" y="-29" type="line"/>
    </contour>
  </outline>
</glyph>
<glyph name="grave" format="1">
  <advance width="166"/>
  <unicode hex="0060"/>
  <outline>
    <contour>
      <point x="217" y="571" type="line"/>
      <point x="186" y="647" type="line"/>
      <point x="207" y="647" type="line"/>
      <point x="235" y="571" type="line"/>
    </contour>
    <contour>
      <point x="277" y="544" type="line"/>
      <point x="229" y="675" type="line"/>
      <point x="141" y="675" type="line"/>
      <point x="196" y="544" type="line"/>
    </contour>
  </outline>
</glyph>
<glyph name="c" format="1">
  <advance width="381"/>
  <unicode hex="0063"/>
  <outline>
    <contour>
      <point x="75" y="21"/>
      <point x="51" y="92"/>
      <point x="74" y="183" type="curve" smooth="yes"/>
      <point x="151" y="492" type="line" smooth="yes"/>
      <point x="174" y="583"/>
      <point x="233" y="653"/>
      <point x="330" y="653" type="curve" smooth="yes"/>
      <point x="428" y="653"/>
      <point x="449" y="583"/>
      <point x="421" y="472" type="curve"/>
      <point x="403" y="472" type="line"/>
      <point x="424" y="555"/>
      <point x="427" y="636"/>
      <point x="326" y="636" type="curve" smooth="yes"/>
      <point x="241" y="636"/>
      <point x="188" y="568"/>
      <point x="169" y="492" type="curve" smooth="yes"/>
      <point x="92" y="183" type="line" smooth="yes"/>
      <point x="73" y="107"/>
      <point x="91" y="39"/>
      <point x="176" y="39" type="curve" smooth="yes"/>
      <point x="277" y="39"/>
      <point x="316" y="121"/>
      <point x="336" y="203" type="curve"/>
      <point x="354" y="203" type="line"/>
      <point x="330" y="107"/>
      <point x="285" y="21"/>
      <point x="172" y="21" type="curve" smooth="yes"/>
    </contour>
    <contour>
      <point x="315" y="-6"/>
      <point x="358" y="105"/>
      <point x="389" y="231" type="curve"/>
      <point x="315" y="231" type="line"/>
      <point x="292" y="137"/>
      <point x="262" y="66"/>
      <point x="183" y="66" type="curve" smooth="yes"/>
      <point x="117" y="66"/>
      <point x="105" y="121"/>
      <point x="120" y="183" type="curve" smooth="yes"/>
      <point x="197" y="492" type="line" smooth="yes"/>
      <point x="213" y="554"/>
      <point x="253" y="608"/>
      <point x="319" y="608" type="curve" smooth="yes"/>
      <point x="405" y="608"/>
      <point x="389" y="527"/>
      <point x="368" y="444" type="curve"/>
      <point x="442" y="444" type="line"/>
      <point x="481" y="599"/>
      <point x="471" y="681"/>
      <point x="337" y="681" type="curve" smooth="yes"/>
      <point x="221" y="681"/>
      <point x="150" y="599"/>
      <point x="123" y="492" type="curve" smooth="yes"/>
      <point x="46" y="183" type="line" smooth="yes"/>
      <point x="19" y="76"/>
      <point x="49" y="-6"/>
      <point x="165" y="-6" type="curve" smooth="yes"/>
    </contour>
  </outline>
</glyph>
<glyph name="i" format="1">
  <advance width="144"/>
  <unicode hex="0069"/>
  <outline>
    <contour>
      <point x="59" y="28" type="line"/>
      <point x="40" y="28" type="line"/>
      <point x="195" y="647" type="line"/>
      <point x="214" y="647" type="line"/>
    </contour>
    <contour>
      <point x="80" y="0" type="line"/>
      <point x="248" y="674" type="line"/>
      <point x="175" y="674" type="line"/>
      <point x="7" y="0" type="line"/>
    </contour>
  </outline>
</glyph>
<glyph name="j" format="1">
  <advance width="355"/>
  <unicode hex="006A"/>
  <outline>
    <contour>
      <point x="60" y="21"/>
      <point x="39" y="79"/>
      <point x="69" y="198" type="curve"/>
      <point x="88" y="198" type="line"/>
      <point x="68" y="120"/>
      <point x="61" y="39"/>
      <point x="153" y="39" type="curve" smooth="yes"/>
      <point x="239" y="39"/>
      <point x="279" y="116"/>
      <point x="297" y="186" type="curve" smooth="yes"/>
      <point x="413" y="650" type="line"/>
      <point x="431" y="650" type="line"/>
      <point x="313" y="177" type="line" smooth="yes"/>
      <point x="292" y="94"/>
      <point x="244" y="21"/>
      <point x="149" y="21" type="curve" smooth="yes"/>
    </contour>
    <contour>
      <point x="258" y="-6"/>
      <point x="316" y="79"/>
      <point x="341" y="177" type="curve" smooth="yes"/>
      <point x="466" y="678" type="line"/>
      <point x="392" y="678" type="line"/>
      <point x="269" y="186" type="line" smooth="yes"/>
      <point x="255" y="129"/>
      <point x="224" y="66"/>
      <point x="160" y="66" type="curve" smooth="yes"/>
      <point x="85" y="66"/>
      <point x="103" y="152"/>
      <point x="122" y="226" type="curve"/>
      <point x="49" y="226" type="line"/>
      <point x="11" y="75"/>
      <point x="22" y="-6"/>
      <point x="142" y="-6" type="curve" smooth="yes"/>
    </contour>
  </outline>
</glyph>
<glyph name="t" format="1">
  <advance width="347"/>
  <unicode hex="0074"/>
  <outline>
    <contour>
      <point x="429" y="647" type="line"/>
      <point x="424" y="629" type="line"/>
      <point x="312" y="629" type="line"/>
      <point x="162" y="28" type="line"/>
      <point x="143" y="28" type="line"/>
      <point x="293" y="629" type="line"/>
      <point x="182" y="629" type="line"/>
      <point x="187" y="647" type="line"/>
    </contour>
    <contour>
      <point x="463" y="675" type="line"/>
      <point x="166" y="675" type="line"/>
      <point x="148" y="602" type="line"/>
      <point x="260" y="602" type="line"/>
      <point x="110" y="1" type="line"/>
      <point x="183" y="1" type="line"/>
      <point x="333" y="602" type="line"/>
      <point x="445" y="602" type="line"/>
    </contour>
  </outline>
</glyph>
<glyph name="v" format="1">
  <advance width="394"/>
  <unicode hex="0076"/>
  <outline>
    <contour>
      <point x="466" y="647" type="line"/>
      <point x="485" y="647" type="line"/>
      <point x="188" y="28" type="line"/>
      <point x="173" y="28" type="line"/>
      <point x="184" y="647" type="line"/>
      <point x="203" y="647" type="line"/>
      <point x="192" y="71" type="line"/>
    </contour>
    <contour>
      <point x="451" y="675" type="line"/>
      <point x="223" y="195" type="line"/>
      <point x="232" y="675" type="line"/>
      <point x="156" y="675" type="line"/>
      <point x="145" y="1" type="line"/>
      <point x="204" y="1" type="line"/>
      <point x="526" y="675" type="line"/>
    </contour>
  </outline>
</glyph>
<glyph name="braceleft" format="1">
  <advance width="216"/>
  <unicode hex="007B"/>
  <outline>
    <contour>
      <point x="311" y="628" type="line"/>
      <point x="160" y="628"/>
      <point x="230" y="394"/>
      <point x="125" y="329" type="curve"/>
      <point x="123" y="323" type="line"/>
      <point x="194" y="274"/>
      <point x="23" y="46"/>
      <point x="166" y="46" type="curve"/>
      <point x="161" y="28" type="line"/>
      <point x="-8" y="27"/>
      <point x="179" y="267"/>
      <point x="102" y="313" type="curve"/>
      <point x="108" y="339" type="line"/>
      <point x="208" y="378"/>
      <point x="139" y="647"/>
      <point x="316" y="647" type="curve"/>
    </contour>
    <contour>
      <point x="350" y="674" type="line"/>
      <point x="216" y="674"/>
      <point x="179" y="598"/>
      <point x="158" y="514" type="curve" smooth="yes"/>
      <point x="155" y="502"/>
      <point x="150" y="483"/>
      <point x="148" y="470" type="curve"/>
      <point x="144" y="457"/>
      <point x="142" y="445"/>
      <point x="139" y="433" type="curve" smooth="yes"/>
      <point x="131" y="399"/>
      <point x="118" y="369"/>
      <point x="85" y="356" type="curve"/>
      <point x="70" y="296" type="line"/>
      <point x="97" y="280"/>
      <point x="94" y="249"/>
      <point x="85" y="213" type="curve" smooth="yes"/>
      <point x="70" y="154" type="line" smooth="yes"/>
      <point x="50" y="73"/>
      <point x="46" y="-2"/>
      <point x="182" y="0" type="curve"/>
      <point x="200" y="73" type="line"/>
      <point x="131" y="73"/>
      <point x="131" y="114"/>
      <point x="143" y="161" type="curve"/>
      <point x="145" y="171"/>
      <point x="149" y="181"/>
      <point x="151" y="191" type="curve"/>
      <point x="158" y="220" type="line" smooth="yes"/>
      <point x="169" y="262"/>
      <point x="176" y="300"/>
      <point x="161" y="327" type="curve"/>
      <point x="189" y="355"/>
      <point x="203" y="393"/>
      <point x="213" y="433" type="curve" smooth="yes"/>
      <point x="217" y="447"/>
      <point x="220" y="465"/>
      <point x="223" y="480" type="curve" smooth="yes"/>
      <point x="226" y="495"/>
      <point x="228" y="509"/>
      <point x="232" y="523" type="curve" smooth="yes"/>
      <point x="243" y="566"/>
      <point x="263" y="601"/>
      <point x="331" y="601" type="curve"/>
    </contour>
  </outline>
</glyph>
<glyph name="exclamdown" format="1">
  <advance width="113"/>
  <unicode hex="00A1"/>
  <outline>
    <contour>
      <point x="204" y="648" type="line"/>
      <point x="197" y="618" type="line"/>
      <point x="179" y="618" type="line"/>
      <point x="186" y="648" type="line"/>
    </contour>
    <contour>
      <point x="158" y="535" type="line"/>
      <point x="176" y="535" type="line"/>
      <point x="50" y="29" type="line"/>
      <point x="32" y="29" type="line"/>
    </contour>
    <contour>
      <point x="71" y="1" type="line"/>
      <point x="211" y="562" type="line"/>
      <point x="137" y="562" type="line"/>
      <point x="-2" y="1" type="line"/>
    </contour>
    <contour>
      <point x="144" y="591" type="line"/>
      <point x="218" y="591" type="line"/>
      <point x="239" y="675" type="line"/>
      <point x="165" y="675" type="line"/>
    </contour>
  </outline>
</glyph>
<glyph name="dieresis" format="1">
  <advance width="226"/>
  <unicode hex="00A8"/>
  <outline>
    <contour>
      <point x="347" y="618" type="line"/>
      <point x="329" y="618" type="line"/>
      <point x="336" y="647" type="line"/>
      <point x="354" y="647" type="line"/>
    </contour>
    <contour>
      <point x="202" y="618" type="line"/>
      <point x="183" y="618" type="line"/>
      <point x="190" y="647" type="line"/>
      <point x="209" y="647" type="line"/>
    </contour>
    <contour>
      <point x="243" y="675" type="line"/>
      <point x="170" y="675" type="line"/>
      <point x="149" y="591" type="line"/>
      <point x="222" y="591" type="line"/>
    </contour>
    <contour>
      <point x="389" y="675" type="line"/>
      <point x="315" y="675" type="line"/>
      <point x="294" y="591" type="line"/>
      <point x="368" y="591" type="line"/>
    </contour>
  </outline>
</glyph>
<glyph name="acute" format="1">
  <advance width="217"/>
  <unicode hex="00B4"/>
  <outline>
    <contour>
      <point x="238" y="572" type="line"/>
      <point x="299" y="647" type="line"/>
      <point x="318" y="647" type="line"/>
      <point x="251" y="572" type="line"/>
    </contour>
    <contour>
      <point x="258" y="545" type="line"/>
      <point x="375" y="675" type="line"/>
      <point x="290" y="675" type="line"/>
      <point x="184" y="545" type="line"/>
    </contour>
  </outline>
</glyph>
<glyph name="guillemotright" format="1">
  <advance width="509"/>
  <unicode hex="00BB"/>
  <outline>
    <contour>
      <point x="394" y="647" type="line"/>
      <point x="561" y="337" type="line"/>
      <point x="239" y="28" type="line"/>
      <point x="219" y="28" type="line"/>
      <point x="541" y="337" type="line"/>
      <point x="484" y="440"/>
      <point x="429" y="543"/>
      <point x="374" y="647" type="curve"/>
    </contour>
    <contour>
      <point x="231" y="647" type="line"/>
      <point x="399" y="337" type="line"/>
      <point x="76" y="28" type="line"/>
      <point x="55" y="28" type="line"/>
      <point x="377" y="337" type="line"/>
      <point x="321" y="440"/>
      <point x="265" y="543"/>
      <point x="210" y="647" type="curve"/>
    </contour>
    <contour>
      <point x="161" y="674" type="line"/>
      <point x="212" y="576"/>
      <point x="286" y="439"/>
      <point x="342" y="337" type="curve"/>
      <point x="-9" y="0" type="line"/>
      <point x="84" y="0" type="line"/>
      <point x="434" y="337" type="line"/>
      <point x="252" y="674" type="line"/>
    </contour>
    <contour>
      <point x="325" y="674" type="line"/>
      <point x="376" y="576"/>
      <point x="449" y="439"/>
      <point x="505" y="337" type="curve"/>
      <point x="155" y="0" type="line"/>
      <point x="247" y="0" type="line"/>
      <point x="597" y="337" type="line"/>
      <point x="415" y="674" type="line"/>
    </contour>
  </outline>
</glyph>
<glyph name="Aacute" format="1">
  <advance width="435"/>
  <unicode hex="00C1"/>
  <outline>
    <contour>
      <point x="342" y="601" type="line"/>
      <point x="169" y="238" type="line"/>
      <point x="335" y="238" type="line"/>
    </contour>
    <contour>
      <point x="69" y="28" type="line"/>
      <point x="50" y="28" type="line"/>
      <point x="347" y="647" type="line"/>
      <point x="361" y="647" type="line"/>
      <point x="347" y="28" type="line"/>
      <point x="329" y="28" type="line"/>
      <point x="334" y="220" type="line"/>
      <point x="160" y="220" type="line"/>
    </contour>
    <contour>
      <point x="85" y="0" type="line"/>
      <point x="178" y="193" type="line"/>
      <point x="306" y="193" type="line"/>
      <point x="300" y="0" type="line"/>
      <point x="375" y="0" type="line"/>
      <point x="390" y="674" type="line"/>
      <point x="332" y="674" type="line"/>
      <point x="10" y="0" type="line"/>
    </contour>
    <contour>
      <point x="312" y="479" type="line"/>
      <point x="307" y="265" type="line"/>
      <point x="211" y="265" type="line"/>
    </contour>
    <contour>
      <point x="342" y="734" type="line"/>
      <point x="403" y="809" type="line"/>
      <point x="422" y="809" type="line"/>
      <point x="355" y="734" type="line"/>
    </contour>
    <contour>
      <point x="362" y="707" type="line"/>
      <point x="479" y="837" type="line"/>
      <point x="394" y="837" type="line"/>
      <point x="288" y="707" type="line"/>
    </contour>
  </outline>
</glyph>
<glyph name="Ecircumflex" format="1">
  <advance width="323"/>
  <unicode hex="00CA"/>
  <outline>
    <contour>
      <point x="203" y="629" type="line"/>
      <point x="132" y="344" type="line"/>
      <point x="264" y="344" type="line"/>
      <point x="260" y="327" type="line"/>
      <point x="128" y="327" type="line"/>
      <point x="58" y="45" type="line"/>
      <point x="255" y="45" type="line"/>
      <point x="250" y="28" type="line"/>
      <point x="36" y="28" type="line"/>
      <point x="190" y="647" type="line"/>
      <point x="405" y="647" type="line"/>
      <point x="400" y="629" type="line"/>
    </contour>
    <contour>
      <point x="422" y="602" type="line"/>
      <point x="440" y="674" type="line"/>
      <point x="170" y="674" type="line"/>
      <point x="3" y="0" type="line"/>
      <point x="272" y="0" type="line"/>
      <point x="290" y="73" type="line"/>
      <point x="92" y="73" type="line"/>
      <point x="148" y="299" type="line"/>
      <point x="280" y="299" type="line"/>
      <point x="298" y="372" type="line"/>
      <point x="166" y="372" type="line"/>
      <point x="224" y="602" type="line"/>
    </contour>
    <contour>
      <point x="266" y="728" type="line"/>
      <point x="330" y="812" type="line"/>
      <point x="359" y="812" type="line"/>
      <point x="381" y="728" type="line"/>
      <point x="368" y="728" type="line"/>
      <point x="342" y="793" type="line"/>
      <point x="336" y="793" type="line"/>
      <point x="281" y="728" type="line"/>
    </contour>
    <contour>
      <point x="289" y="700" type="line"/>
      <point x="328" y="744" type="line"/>
      <point x="348" y="700" type="line"/>
      <point x="422" y="700" type="line"/>
      <point x="383" y="840" type="line"/>
      <point x="320" y="840" type="line"/>
      <point x="215" y="700" type="line"/>
    </contour>
  </outline>
</glyph>
<glyph name="Iacute" format="1">
  <advance width="144"/>
  <unicode hex="00CD"/>
  <outline>
    <contour>
      <point x="40" y="28" type="line"/>
      <point x="195" y="647" type="line"/>
      <point x="214" y="647" type="line"/>
      <point x="59" y="28" type="line"/>
    </contour>
    <contour>
      <point x="80" y="0" type="line"/>
      <point x="248" y="674" type="line"/>
      <point x="175" y="674" type="line"/>
      <point x="7" y="0" type="line"/>
    </contour>
    <contour>
      <point x="196" y="742" type="line"/>
      <point x="257" y="817" type="line"/>
      <point x="276" y="817" type="line"/>
      <point x="209" y="742" type="line"/>
    </contour>
    <contour>
      <point x="216" y="715" type="line"/>
      <point x="333" y="845" type="line"/>
      <point x="248" y="845" type="line"/>
      <point x="142" y="715" type="line"/>
    </contour>
  </outline>
</glyph>
<glyph name="multiply" format="1">
  <advance width="377"/>
  <unicode hex="00D7"/>
  <outline>
    <contour>
      <point x="195" y="441" type="line"/>
      <point x="265" y="348" type="line"/>
      <point x="382" y="442" type="line"/>
      <point x="391" y="429" type="line"/>
      <point x="275" y="335" type="line"/>
      <point x="345" y="242" type="line"/>
      <point x="329" y="229" type="line"/>
      <point x="259" y="322" type="line"/>
      <point x="143" y="230" type="line"/>
      <point x="131" y="242" type="line"/>
      <point x="248" y="335" type="line"/>
      <point x="177" y="429" type="line"/>
    </contour>
    <contour>
      <point x="138" y="431" type="line"/>
      <point x="209" y="335" type="line"/>
      <point x="89" y="239" type="line"/>
      <point x="136" y="193" type="line"/>
      <point x="249" y="284" type="line"/>
      <point x="319" y="190" type="line"/>
      <point x="384" y="242" type="line"/>
      <point x="313" y="335" type="line"/>
      <point x="430" y="429" type="line"/>
      <point x="391" y="480" type="line"/>
      <point x="275" y="387" type="line"/>
      <point x="207" y="478" type="line"/>
    </contour>
  </outline>
</glyph>
<glyph name="Ucircumflex" format="1">
  <advance width="387"/>
  <unicode hex="00DB"/>
  <outline>
    <contour>
      <point x="79" y="22"/>
      <point x="48" y="83"/>
      <point x="70" y="171" type="curve" smooth="yes"/>
      <point x="188" y="647" type="line"/>
      <point x="206" y="647" type="line"/>
      <point x="88" y="176" type="line" smooth="yes"/>
      <point x="69" y="98"/>
      <point x="92" y="39"/>
      <point x="174" y="39" type="curve" smooth="yes"/>
      <point x="257" y="39"/>
      <point x="310" y="98"/>
      <point x="329" y="176" type="curve" smooth="yes"/>
      <point x="447" y="647" type="line"/>
      <point x="465" y="647" type="line"/>
      <point x="346" y="171" type="line" smooth="yes"/>
      <point x="324" y="83"/>
      <point x="261" y="22"/>
      <point x="170" y="22" type="curve" smooth="yes"/>
    </contour>
    <contour>
      <point x="273" y="-6"/>
      <point x="348" y="66"/>
      <point x="374" y="171" type="curve" smooth="yes"/>
      <point x="500" y="675" type="line"/>
      <point x="426" y="675" type="line"/>
      <point x="301" y="176" type="line" smooth="yes"/>
      <point x="286" y="114"/>
      <point x="245" y="67"/>
      <point x="181" y="67" type="curve" smooth="yes"/>
      <point x="118" y="67"/>
      <point x="101" y="114"/>
      <point x="116" y="176" type="curve" smooth="yes"/>
      <point x="241" y="675" type="line"/>
      <point x="167" y="675" type="line"/>
      <point x="42" y="171" type="line" smooth="yes"/>
      <point x="16" y="66"/>
      <point x="54" y="-6"/>
      <point x="163" y="-6" type="curve" smooth="yes"/>
    </contour>
    <contour>
      <point x="286" y="728" type="line"/>
      <point x="350" y="812" type="line"/>
      <point x="379" y="812" type="line"/>
      <point x="401" y="728" type="line"/>
      <point x="388" y="728" type="line"/>
      <point x="362" y="793" type="line"/>
      <point x="356" y="793" type="line"/>
      <point x="301" y="728" type="line"/>
    </contour>
    <contour>
      <point x="309" y="700" type="line"/>
      <point x="348" y="744" type="line"/>
      <point x="368" y="700" type="line"/>
      <point x="442" y="700" type="line"/>
      <point x="403" y="840" type="line"/>
      <point x="340" y="840" type="line"/>
      <point x="235" y="700" type="line"/>
    </contour>
  </outline>
</glyph>
<glyph name="agrave" format="1">
  <advance width="435"/>
  <unicode hex="00E0"/>
  <outline>
    <contour>
      <point x="342" y="601" type="line"/>
      <point x="169" y="238" type="line"/>
      <point x="335" y="238" type="line"/>
    </contour>
    <contour>
      <point x="69" y="28" type="line"/>
      <point x="50" y="28" type="line"/>
      <point x="347" y="647" type="line"/>
      <point x="361" y="647" type="line"/>
      <point x="347" y="28" type="line"/>
      <point x="329" y="28" type="line"/>
      <point x="334" y="220" type="line"/>
      <point x="160" y="220" type="line"/>
    </contour>
    <contour>
      <point x="85" y="0" type="line"/>
      <point x="178" y="193" type="line"/>
      <point x="306" y="193" type="line"/>
      <point x="300" y="0" type="line"/>
      <point x="375" y="0" type="line"/>
      <point x="390" y="674" type="line"/>
      <point x="332" y="674" type="line"/>
      <point x="10" y="0" type="line"/>
    </contour>
    <contour>
      <point x="312" y="479" type="line"/>
      <point x="307" y="265" type="line"/>
      <point x="211" y="265" type="line"/>
    </contour>
    <contour>
      <point x="399" y="733" type="line"/>
      <point x="368" y="809" type="line"/>
      <point x="389" y="809" type="line"/>
      <point x="417" y="733" type="line"/>
    </contour>
    <contour>
      <point x="459" y="706" type="line"/>
      <point x="411" y="837" type="line"/>
      <point x="323" y="837" type="line"/>
      <point x="378" y="706" type="line"/>
    </contour>
  </outline>
</glyph>
<glyph name="adieresis" format="1">
  <advance width="435"/>
  <unicode hex="00E4"/>
  <outline>
    <contour>
      <point x="342" y="601" type="line"/>
      <point x="169" y="238" type="line"/>
      <point x="335" y="238" type="line"/>
    </contour>
    <contour>
      <point x="69" y="28" type="line"/>
      <point x="50" y="28" type="line"/>
      <point x="347" y="647" type="line"/>
      <point x="361" y="647" type="line"/>
      <point x="347" y="28" type="line"/>
      <point x="329" y="28" type="line"/>
      <point x="334" y="220" type="line"/>
      <point x="160" y="220" type="line"/>
    </contour>
    <contour>
      <point x="85" y="0" type="line"/>
      <point x="178" y="193" type="line"/>
      <point x="306" y="193" type="line"/>
      <point x="300" y="0" type="line"/>
      <point x="375" y="0" type="line"/>
      <point x="390" y="674" type="line"/>
      <point x="332" y="674" type="line"/>
      <point x="10" y="0" type="line"/>
    </contour>
    <contour>
      <point x="312" y="479" type="line"/>
      <point x="307" y="265" type="line"/>
      <point x="211" y="265" type="line"/>
    </contour>
    <contour>
      <point x="459" y="745" type="line"/>
      <point x="441" y="745" type="line"/>
      <point x="448" y="774" type="line"/>
      <point x="466" y="774" type="line"/>
    </contour>
    <contour>
      <point x="314" y="745" type="line"/>
      <point x="295" y="745" type="line"/>
      <point x="302" y="774" type="line"/>
      <point x="321" y="774" type="line"/>
    </contour>
    <contour>
      <point x="355" y="802" type="line"/>
      <point x="282" y="802" type="line"/>
      <point x="261" y="718" type="line"/>
      <point x="334" y="718" type="line"/>
    </contour>
    <contour>
      <point x="501" y="802" type="line"/>
      <point x="427" y="802" type="line"/>
      <point x="406" y="718" type="line"/>
      <point x="480" y="718" type="line"/>
    </contour>
  </outline>
</glyph>
<glyph name="ae" format="1">
  <advance width="569"/>
  <unicode hex="00E6"/>
  <outline>
    <contour>
      <point x="642" y="629" type="line"/>
      <point x="444" y="629" type="line"/>
      <point x="374" y="346" type="line"/>
      <point x="497" y="346" type="line"/>
      <point x="493" y="329" type="line"/>
      <point x="370" y="329" type="line"/>
      <point x="299" y="45" type="line"/>
      <point x="497" y="45" type="line"/>
      <point x="492" y="28" type="line"/>
      <point x="276" y="28" type="line"/>
      <point x="352" y="329" type="line"/>
      <point x="250" y="329" type="line"/>
      <point x="55" y="28" type="line"/>
      <point x="33" y="28" type="line"/>
      <point x="422" y="647" type="line"/>
      <point x="647" y="647" type="line"/>
    </contour>
    <contour>
      <point x="663" y="602" type="line"/>
      <point x="681" y="674" type="line"/>
      <point x="410" y="674" type="line"/>
      <point x="-14" y="0" type="line"/>
      <point x="68" y="0" type="line"/>
      <point x="261" y="301" type="line"/>
      <point x="317" y="301" type="line"/>
      <point x="242" y="0" type="line"/>
      <point x="513" y="0" type="line"/>
      <point x="531" y="73" type="line"/>
      <point x="334" y="73" type="line"/>
      <point x="391" y="301" type="line"/>
      <point x="513" y="301" type="line"/>
      <point x="531" y="374" type="line"/>
      <point x="409" y="374" type="line"/>
      <point x="466" y="602" type="line"/>
    </contour>
    <contour>
      <point x="402" y="575" type="line"/>
      <point x="255" y="346" type="line"/>
      <point x="356" y="346" type="line"/>
      <point x="401" y="529" type="line"/>
      <point x="420" y="605" type="line"/>
    </contour>
    <contour>
      <point x="302" y="374" type="line"/>
      <point x="355" y="457" type="line"/>
      <point x="335" y="374" type="line"/>
    </contour>
  </outline>
</glyph>
<glyph name="igrave" format="1">
  <advance width="144"/>
  <unicode hex="00EC"/>
  <outline>
    <contour>
      <point x="40" y="28" type="line"/>
      <point x="195" y="647" type="line"/>
      <point x="214" y="647" type="line"/>
      <point x="59" y="28" type="line"/>
    </contour>
    <contour>
      <point x="80" y="0" type="line"/>
      <point x="248" y="674" type="line"/>
      <point x="175" y="674" type="line"/>
      <point x="7" y="0" type="line"/>
    </contour>
    <contour>
      <point x="237" y="740" type="line"/>
      <point x="206" y="816" type="line"/>
      <point x="227" y="816" type="line"/>
      <point x="255" y="740" type="line"/>
    </contour>
    <contour>
      <point x="297" y="713" type="line"/>
      <point x="249" y="844" type="line"/>
      <point x="161" y="844" type="line"/>
      <point x="216" y="713" type="line"/>
    </contour>
  </outline>
</glyph>
<glyph name="icircumflex" format="1">
  <advance width="144"/>
  <unicode hex="00EE"/>
  <outline>
    <contour>
      <point x="40" y="28" type="line"/>
      <point x="195" y="647" type="line"/>
      <point x="214" y="647" type="line"/>
      <point x="59" y="28" type="line"/>
    </contour>
    <contour>
      <point x="80" y="0" type="line"/>
      <point x="248" y="674" type="line"/>
      <point x="175" y="674" type="line"/>
      <point x="7" y="0" type="line"/>
    </contour>
    <contour>
      <point x="167" y="728" type="line"/>
      <point x="231" y="812" type="line"/>
      <point x="260" y="812" type="line"/>
      <point x="282" y="728" type="line"/>
      <point x="269" y="728" type="line"/>
      <point x="243" y="793" type="line"/>
      <point x="237" y="793" type="line"/>
      <point x="182" y="728" type="line"/>
    </contour>
    <contour>
      <point x="190" y="700" type="line"/>
      <point x="229" y="744" type="line"/>
      <point x="249" y="700" type="line"/>
      <point x="323" y="700" type="line"/>
      <point x="284" y="840" type="line"/>
      <point x="221" y="840" type="line"/>
      <point x="116" y="700" type="line"/>
    </contour>
  </outline>
</glyph>
<glyph name="otilde" format="1">
  <advance width="391"/>
  <unicode hex="00F5"/>
  <outline>
    <contour>
      <point x="239" y="635"/>
      <point x="188" y="559"/>
      <point x="169" y="483" type="curve" smooth="yes"/>
      <point x="96" y="191" type="line" smooth="yes"/>
      <point x="76" y="112"/>
      <point x="88" y="40"/>
      <point x="178" y="40" type="curve" smooth="yes"/>
      <point x="268" y="40"/>
      <point x="314" y="108"/>
      <point x="334" y="188" type="curve" smooth="yes"/>
      <point x="408" y="482" type="line" smooth="yes"/>
      <point x="427" y="561"/>
      <point x="418" y="635"/>
      <point x="327" y="635" type="curve" smooth="yes"/>
    </contour>
    <contour>
      <point x="77" y="21"/>
      <point x="54" y="93"/>
      <point x="76" y="183" type="curve" smooth="yes"/>
      <point x="153" y="492" type="line" smooth="yes"/>
      <point x="175" y="579"/>
      <point x="237" y="655"/>
      <point x="332" y="655" type="curve" smooth="yes"/>
      <point x="428" y="655"/>
      <point x="450" y="579"/>
      <point x="428" y="492" type="curve" smooth="yes"/>
      <point x="351" y="183" type="line" smooth="yes"/>
      <point x="328" y="91"/>
      <point x="273" y="21"/>
      <point x="174" y="21" type="curve" smooth="yes"/>
    </contour>
    <contour>
      <point x="285" y="-6"/>
      <point x="352" y="75"/>
      <point x="379" y="183" type="curve" smooth="yes"/>
      <point x="456" y="492" type="line" smooth="yes"/>
      <point x="482" y="594"/>
      <point x="453" y="681"/>
      <point x="338" y="681" type="curve" smooth="yes"/>
      <point x="224" y="681"/>
      <point x="151" y="594"/>
      <point x="125" y="492" type="curve" smooth="yes"/>
      <point x="48" y="183" type="line" smooth="yes"/>
      <point x="22" y="77"/>
      <point x="51" y="-6"/>
      <point x="167" y="-6" type="curve" smooth="yes"/>
    </contour>
    <contour>
      <point x="390" y="607"/>
      <point x="396" y="546"/>
      <point x="380" y="482" type="curve" smooth="yes"/>
      <point x="306" y="188" type="line" smooth="yes"/>
      <point x="290" y="123"/>
      <point x="255" y="67"/>
      <point x="185" y="67" type="curve" smooth="yes"/>
      <point x="116" y="67"/>
      <point x="107" y="127"/>
      <point x="123" y="191" type="curve" smooth="yes"/>
      <point x="196" y="483" type="line" smooth="yes"/>
      <point x="212" y="546"/>
      <point x="252" y="607"/>
      <point x="320" y="607" type="curve" smooth="yes"/>
    </contour>
    <contour>
      <point x="466" y="750" type="line"/>
      <point x="449" y="744"/>
      <point x="431" y="738"/>
      <point x="415" y="738" type="curve" smooth="yes"/>
      <point x="368" y="738"/>
      <point x="344" y="777"/>
      <point x="301" y="777" type="curve" smooth="yes"/>
      <point x="281" y="777"/>
      <point x="261" y="768"/>
      <point x="244" y="754" type="curve"/>
      <point x="233" y="769" type="line"/>
      <point x="254" y="782"/>
      <point x="280" y="797"/>
      <point x="304" y="797" type="curve" smooth="yes"/>
      <point x="353" y="797"/>
      <point x="379" y="757"/>
      <point x="422" y="757" type="curve" smooth="yes"/>
      <point x="431" y="757"/>
      <point x="444" y="763"/>
      <point x="454" y="766" type="curve"/>
    </contour>
    <contour>
      <point x="469" y="801" type="line"/>
      <point x="452" y="792" type="line"/>
      <point x="443" y="788"/>
      <point x="433" y="785"/>
      <point x="429" y="785" type="curve" smooth="yes"/>
      <point x="414" y="785"/>
      <point x="400" y="793"/>
      <point x="384" y="801" type="curve"/>
      <point x="385" y="801" type="line"/>
      <point x="363" y="812"/>
      <point x="341" y="824"/>
      <point x="310" y="824" type="curve" smooth="yes"/>
      <point x="278" y="824"/>
      <point x="232" y="797"/>
      <point x="192" y="773" type="curve"/>
      <point x="234" y="716" type="line"/>
      <point x="260" y="736"/>
      <point x="282" y="750"/>
      <point x="294" y="750" type="curve" smooth="yes"/>
      <point x="309" y="750"/>
      <point x="322" y="741"/>
      <point x="337" y="733" type="curve"/>
      <point x="357" y="721"/>
      <point x="377" y="710"/>
      <point x="408" y="710" type="curve" smooth="yes"/>
      <point x="429" y="710"/>
      <point x="472" y="725"/>
      <point x="509" y="738" type="curve"/>
    </contour>
  </outline>
</glyph>
<glyph name="ugrave" format="1">
  <advance width="387"/>
  <unicode hex="00F9"/>
  <outline>
    <contour>
      <point x="79" y="22"/>
      <point x="48" y="83"/>
      <point x="70" y="171" type="curve" smooth="yes"/>
      <point x="188" y="647" type="line"/>
      <point x="206" y="647" type="line"/>
      <point x="88" y="176" type="line" smooth="yes"/>
      <point x="69" y="98"/>
      <point x="92" y="39"/>
      <point x="174" y="39" type="curve" smooth="yes"/>
      <point x="257" y="39"/>
      <point x="310" y="98"/>
      <point x="329" y="176" type="curve" smooth="yes"/>
      <point x="447" y="647" type="line"/>
      <point x="465" y="647" type="line"/>
      <point x="346" y="171" type="line" smooth="yes"/>
      <point x="324" y="83"/>
      <point x="261" y="22"/>
      <point x="170" y="22" type="curve" smooth="yes"/>
    </contour>
    <contour>
      <point x="273" y="-6"/>
      <point x="348" y="66"/>
      <point x="374" y="171" type="curve" smooth="yes"/>
      <point x="500" y="675" type="line"/>
      <point x="426" y="675" type="line"/>
      <point x="301" y="176" type="line" smooth="yes"/>
      <point x="286" y="114"/>
      <point x="245" y="67"/>
      <point x="181" y="67" type="curve" smooth="yes"/>
      <point x="118" y="67"/>
      <point x="101" y="114"/>
      <point x="116" y="176" type="curve" smooth="yes"/>
      <point x="241" y="675" type="line"/>
      <point x="167" y="675" type="line"/>
      <point x="42" y="171" type="line" smooth="yes"/>
      <point x="16" y="66"/>
      <point x="54" y="-6"/>
      <point x="163" y="-6" type="curve" smooth="yes"/>
    </contour>
    <contour>
      <point x="356" y="733" type="line"/>
      <point x="325" y="809" type="line"/>
      <point x="346" y="809" type="line"/>
      <point x="374" y="733" type="line"/>
    </contour>
    <contour>
      <point x="416" y="706" type="line"/>
      <point x="368" y="837" type="line"/>
      <point x="280" y="837" type="line"/>
      <point x="335" y="706" type="line"/>
    </contour>
  </outline>
</glyph>
<glyph name="udieresis" format="1">
  <advance width="387"/>
  <unicode hex="00FC"/>
  <outline>
    <contour>
      <point x="79" y="22"/>
      <point x="48" y="83"/>
      <point x="70" y="171" type="curve" smooth="yes"/>
      <point x="188" y="647" type="line"/>
      <point x="206" y="647" type="line"/>
      <point x="88" y="176" type="line" smooth="yes"/>
      <point x="69" y="98"/>
      <point x="92" y="39"/>
      <point x="174" y="39" type="curve" smooth="yes"/>
      <point x="257" y="39"/>
      <point x="310" y="98"/>
      <point x="329" y="176" type="curve" smooth="yes"/>
      <point x="447" y="647" type="line"/>
      <point x="465" y="647" type="line"/>
      <point x="346" y="171" type="line" smooth="yes"/>
      <point x="324" y="83"/>
      <point x="261" y="22"/>
      <point x="170" y="22" type="curve" smooth="yes"/>
    </contour>
    <contour>
      <point x="273" y="-6"/>
      <point x="348" y="66"/>
      <point x="374" y="171" type="curve" smooth="yes"/>
      <point x="500" y="675" type="line"/>
      <point x="426" y="675" type="line"/>
      <point x="301" y="176" type="line" smooth="yes"/>
      <point x="286" y="114"/>
      <point x="245" y="67"/>
      <point x="181" y="67" type="curve" smooth="yes"/>
      <point x="118" y="67"/>
      <point x="101" y="114"/>
      <point x="116" y="176" type="curve" smooth="yes"/>
      <point x="241" y="675" type="line"/>
      <point x="167" y="675" type="line"/>
      <point x="42" y="171" type="line" smooth="yes"/>
      <point x="16" y="66"/>
      <point x="54" y="-6"/>
      <point x="163" y="-6" type="curve" smooth="yes"/>
    </contour>
    <contour>
      <point x="435" y="745" type="line"/>
      <point x="417" y="745" type="line"/>
      <point x="424" y="774" type="line"/>
      <point x="442" y="774" type="line"/>
    </contour>
    <contour>
      <point x="290" y="745" type="line"/>
      <point x="271" y="745" type="line"/>
      <point x="278" y="774" type="line"/>
      <point x="297" y="774" type="line"/>
    </contour>
    <contour>
      <point x="331" y="802" type="line"/>
      <point x="258" y="802" type="line"/>
      <point x="237" y="718" type="line"/>
      <point x="310" y="718" type="line"/>
    </contour>
    <contour>
      <point x="477" y="802" type="line"/>
      <point x="403" y="802" type="line"/>
      <point x="382" y="718" type="line"/>
      <point x="456" y="718" type="line"/>
    </contour>
  </outline>
</glyph>
<glyph name="thorn" format="1">
  <advance width="348"/>
  <unicode hex="00FE"/>
  <outline>
    <contour>
      <point x="199" y="501"/>
      <point x="160" y="434"/>
      <point x="143" y="366" type="curve" smooth="yes"/>
      <point x="132" y="321" type="line" smooth="yes"/>
      <point x="114" y="252"/>
      <point x="121" y="185"/>
      <point x="201" y="185" type="curve" smooth="yes"/>
      <point x="281" y="185"/>
      <point x="320" y="252"/>
      <point x="338" y="321" type="curve" smooth="yes"/>
      <point x="349" y="366" type="line" smooth="yes"/>
      <point x="366" y="434"/>
      <point x="359" y="501"/>
      <point x="279" y="501" type="curve" smooth="yes"/>
    </contour>
    <contour>
      <point x="152" y="167"/>
      <point x="116" y="181"/>
      <point x="107" y="231" type="curve"/>
      <point x="56" y="28" type="line"/>
      <point x="39" y="28" type="line"/>
      <point x="194" y="647" type="line"/>
      <point x="211" y="647" type="line"/>
      <point x="163" y="454" type="line"/>
      <point x="185" y="490"/>
      <point x="231" y="519"/>
      <point x="284" y="519" type="curve" smooth="yes"/>
      <point x="367" y="519"/>
      <point x="388" y="450"/>
      <point x="369" y="375" type="curve" smooth="yes"/>
      <point x="353" y="311" type="line" smooth="yes"/>
      <point x="334" y="235"/>
      <point x="280" y="167"/>
      <point x="196" y="167" type="curve" smooth="yes"/>
    </contour>
    <contour>
      <point x="293" y="140"/>
      <point x="358" y="220"/>
      <point x="381" y="311" type="curve" smooth="yes"/>
      <point x="397" y="375" type="line" smooth="yes"/>
      <point x="419" y="465"/>
      <point x="394" y="546"/>
      <point x="291" y="546" type="curve" smooth="yes"/>
      <point x="261" y="546"/>
      <point x="234" y="537"/>
      <point x="208" y="522" type="curve"/>
      <point x="246" y="674" type="line"/>
      <point x="173" y="674" type="line"/>
      <point x="5" y="0" type="line"/>
      <point x="78" y="0" type="line"/>
      <point x="118" y="163" type="line"/>
      <point x="136" y="148"/>
      <point x="159" y="140"/>
      <point x="189" y="140" type="curve" smooth="yes"/>
    </contour>
    <contour>
      <point x="331" y="473"/>
      <point x="334" y="421"/>
      <point x="321" y="366" type="curve" smooth="yes"/>
      <point x="310" y="321" type="line" smooth="yes"/>
      <point x="296" y="265"/>
      <point x="266" y="212"/>
      <point x="207" y="212" type="curve" smooth="yes"/>
      <point x="148" y="212"/>
      <point x="145" y="265"/>
      <point x="159" y="321" type="curve" smooth="yes"/>
      <point x="170" y="366" type="line" smooth="yes"/>
      <point x="183" y="421"/>
      <point x="213" y="473"/>
      <point x="272" y="473" type="curve" smooth="yes"/>
    </contour>
  </outline>
</glyph>
<glyph name="ydieresis" format="1">
  <advance width="353"/>
  <unicode hex="00FF"/>
  <outline>
    <contour>
      <point x="437" y="647" type="line"/>
      <point x="456" y="647" type="line"/>
      <point x="245" y="312" type="line"/>
      <point x="174" y="28" type="line"/>
      <point x="155" y="28" type="line"/>
      <point x="226" y="312" type="line"/>
      <point x="212" y="424"/>
      <point x="196" y="534"/>
      <point x="184" y="647" type="curve"/>
      <point x="203" y="647" type="line"/>
      <point x="243" y="337" type="line"/>
    </contour>
    <contour>
      <point x="425" y="674" type="line"/>
      <point x="374" y="592"/>
      <point x="317" y="502"/>
      <point x="262" y="416" type="curve"/>
      <point x="229" y="674" type="line"/>
      <point x="151" y="674" type="line"/>
      <point x="157" y="613"/>
      <point x="170" y="512"/>
      <point x="197" y="307" type="curve"/>
      <point x="121" y="0" type="line"/>
      <point x="195" y="0" type="line"/>
      <point x="271" y="307" type="line"/>
      <point x="503" y="674" type="line"/>
    </contour>
    <contour>
      <point x="429" y="748" type="line"/>
      <point x="411" y="748" type="line"/>
      <point x="418" y="777" type="line"/>
      <point x="436" y="777" type="line"/>
    </contour>
    <contour>
      <point x="284" y="748" type="line"/>
      <point x="265" y="748" type="line"/>
      <point x="272" y="777" type="line"/>
      <point x="291" y="777" type="line"/>
    </contour>
    <contour>
      <point x="325" y="805" type="line"/>
      <point x="252" y="805" type="line"/>
      <point x="231" y="721" type="line"/>
      <point x="304" y="721" type="line"/>
    </contour>
    <contour>
      <point x="471" y="805" type="line"/>
      <point x="397" y="805" type="line"/>
      <point x="376" y="721" type="line"/>
      <point x="450" y="721" type="line"/>
    </contour>
  </outline>
</glyph>
<glyph name="dotlessi" format="1">
  <advance width="129"/>
  <unicode hex="0131"/>
  <outline>
    <contour>
      <point x="45" y="27" type="line"/>
      <point x="196" y="632" type="line"/>
      <point x="213" y="632" type="line"/>
      <point x="62" y="27" type="line"/>
    </contour>
    <contour>
      <point x="83" y="0" type="line"/>
      <point x="247" y="659" type="line"/>
      <point x="176" y="659" type="line"/>
      <point x="12" y="0" type="line"/>
    </contour>
  </outline>
</glyph>
<glyph name="Lslash" format="1">
  <advance width="303"/>
  <unicode hex="0141"/>
  <outline>
    <contour>
      <point x="10" y="344" type="line"/>
      <point x="106" y="344" type="line"/>
      <point x="182" y="647" type="line"/>
      <point x="201" y="647" type="line"/>
      <point x="125" y="344" type="line"/>
      <point x="221" y="344" type="line"/>
      <point x="217" y="326" type="line"/>
      <point x="121" y="326" type="line"/>
      <point x="51" y="45" type="line"/>
      <point x="243" y="45" type="line"/>
      <point x="238" y="28" type="line"/>
      <point x="27" y="28" type="line"/>
      <point x="102" y="326" type="line"/>
      <point x="75" y="326" type="line"/>
      <point x="6" y="326" type="line"/>
    </contour>
    <contour>
      <point x="-6" y="0" type="line"/>
      <point x="260" y="0" type="line"/>
      <point x="278" y="73" type="line"/>
      <point x="85" y="73" type="line"/>
      <point x="141" y="298" type="line"/>
      <point x="238" y="298" type="line"/>
      <point x="256" y="372" type="line"/>
      <point x="159" y="372" type="line"/>
      <point x="235" y="674" type="line"/>
      <point x="162" y="674" type="line"/>
      <point x="86" y="372" type="line"/>
      <point x="-10" y="372" type="line"/>
      <point x="-28" y="298" type="line"/>
      <point x="68" y="298" type="line"/>
    </contour>
  </outline>
</glyph>
<glyph name="Scaron" format="1">
  <advance width="363"/>
  <unicode hex="0160"/>
  <outline>
    <contour>
      <point x="64" y="22"/>
      <point x="52" y="92"/>
      <point x="80" y="202" type="curve"/>
      <point x="99" y="202" type="line"/>
      <point x="82" y="134"/>
      <point x="70" y="39"/>
      <point x="169" y="39" type="curve" smooth="yes"/>
      <point x="246" y="39"/>
      <point x="296" y="85"/>
      <point x="315" y="161" type="curve" smooth="yes"/>
      <point x="329" y="217"/>
      <point x="286" y="281"/>
      <point x="248" y="320" type="curve"/>
      <point x="249" y="320" type="line"/>
      <point x="199" y="365"/>
      <point x="145" y="435"/>
      <point x="165" y="516" type="curve" smooth="yes"/>
      <point x="184" y="593"/>
      <point x="248" y="654"/>
      <point x="328" y="654" type="curve" smooth="yes"/>
      <point x="428" y="654"/>
      <point x="431" y="585"/>
      <point x="405" y="481" type="curve"/>
      <point x="388" y="481" type="line"/>
      <point x="405" y="550"/>
      <point x="420" y="636"/>
      <point x="323" y="636" type="curve" smooth="yes"/>
      <point x="250" y="636"/>
      <point x="198" y="579"/>
      <point x="181" y="511" type="curve" smooth="yes"/>
      <point x="147" y="375"/>
      <point x="369" y="308"/>
      <point x="333" y="162" type="curve" smooth="yes"/>
      <point x="311" y="73"/>
      <point x="255" y="22"/>
      <point x="165" y="22" type="curve" smooth="yes"/>
    </contour>
    <contour>
      <point x="266" y="-6"/>
      <point x="333" y="56"/>
      <point x="360" y="162" type="curve" smooth="yes"/>
      <point x="381" y="245"/>
      <point x="331" y="305"/>
      <point x="280" y="363" type="curve"/>
      <point x="280" y="362" type="line"/>
      <point x="238" y="410"/>
      <point x="195" y="456"/>
      <point x="209" y="511" type="curve" smooth="yes"/>
      <point x="222" y="564"/>
      <point x="261" y="608"/>
      <point x="316" y="608" type="curve" smooth="yes"/>
      <point x="387" y="608"/>
      <point x="373" y="532"/>
      <point x="354" y="454" type="curve"/>
      <point x="427" y="454" type="line"/>
      <point x="458" y="580"/>
      <point x="469" y="681"/>
      <point x="334" y="681" type="curve" smooth="yes"/>
      <point x="237" y="681"/>
      <point x="160" y="609"/>
      <point x="137" y="516" type="curve" smooth="yes"/>
      <point x="114" y="424"/>
      <point x="172" y="346"/>
      <point x="227" y="298" type="curve"/>
      <point x="226" y="299" type="line"/>
      <point x="259" y="264"/>
      <point x="300" y="214"/>
      <point x="287" y="161" type="curve" smooth="yes"/>
      <point x="272" y="103"/>
      <point x="234" y="67"/>
      <point x="176" y="67" type="curve" smooth="yes"/>
      <point x="102" y="67"/>
      <point x="110" y="137"/>
      <point x="133" y="230" type="curve"/>
      <point x="60" y="230" type="line"/>
      <point x="21" y="76"/>
      <point x="33" y="-6"/>
      <point x="158" y="-6" type="curve" smooth="yes"/>
    </contour>
    <contour>
      <point x="323" y="819" type="line"/>
      <point x="347" y="754" type="line"/>
      <point x="354" y="754" type="line"/>
      <point x="409" y="819" type="line"/>
      <point x="423" y="819" type="line"/>
      <point x="359" y="735" type="line"/>
      <point x="331" y="735" type="line"/>
      <point x="308" y="819" type="line"/>
    </contour>
    <contour>
      <point x="271" y="847" type="line"/>
      <point x="308" y="707" type="line"/>
      <point x="370" y="707" type="line"/>
      <point x="479" y="847" type="line"/>
      <point x="402" y="847" type="line"/>
      <point x="362" y="802" type="line"/>
      <point x="346" y="847" type="line"/>
    </contour>
  </outline>
</glyph>
<glyph name="Zcaron" format="1">
  <advance width="355"/>
  <unicode hex="017D"/>
  <outline>
    <contour>
      <point x="313" y="797" type="line"/>
      <point x="336" y="732" type="line"/>
      <point x="344" y="732" type="line"/>
      <point x="400" y="797" type="line"/>
      <point x="412" y="797" type="line"/>
      <point x="349" y="713" type="line"/>
      <point x="320" y="713" type="line"/>
      <point x="299" y="797" type="line"/>
    </contour>
    <contour>
      <point x="56" y="46" type="line"/>
      <point x="293" y="46" type="line"/>
      <point x="288" y="28" type="line"/>
      <point x="31" y="28" type="line"/>
      <point x="37" y="51" type="line"/>
      <point x="416" y="627" type="line"/>
      <point x="416" y="628" type="line"/>
      <point x="196" y="628" type="line"/>
      <point x="201" y="647" type="line"/>
      <point x="440" y="647" type="line"/>
      <point x="434" y="624" type="line"/>
      <point x="56" y="48" type="line"/>
    </contour>
    <contour>
      <point x="460" y="618" type="line"/>
      <point x="474" y="674" type="line"/>
      <point x="180" y="674" type="line"/>
      <point x="161" y="601" type="line"/>
      <point x="369" y="601" type="line"/>
      <point x="12" y="57" type="line"/>
      <point x="-2" y="0" type="line"/>
      <point x="310" y="0" type="line"/>
      <point x="328" y="73" type="line"/>
      <point x="103" y="73" type="line"/>
    </contour>
    <contour>
      <point x="261" y="824" type="line"/>
      <point x="296" y="686" type="line"/>
      <point x="358" y="686" type="line"/>
      <point x="467" y="824" type="line"/>
      <point x="394" y="824" type="line"/>
      <point x="352" y="779" type="line"/>
      <point x="336" y="824" type="line"/>
    </contour>
  </outline>
</glyph>
<glyph name="caron" format="1">
  <advance width="188"/>
  <unicode hex="02C7"/>
  <outline>
    <contour>
      <point x="229" y="697" type="line"/>
      <point x="253" y="632" type="line"/>
      <point x="260" y="632" type="line"/>
      <point x="315" y="697" type="line"/>
      <point x="329" y="697" type="line"/>
      <point x="265" y="613" type="line"/>
      <point x="237" y="613" type="line"/>
      <point x="214" y="697" type="line"/>
    </contour>
    <contour>
      <point x="177" y="725" type="line"/>
      <point x="214" y="585" type="line"/>
      <point x="276" y="585" type="line"/>
      <point x="385" y="725" type="line"/>
      <point x="308" y="725" type="line"/>
      <point x="268" y="680" type="line"/>
      <point x="252" y="725" type="line"/>
    </contour>
  </outline>
</glyph>
<glyph name="ring" format="1">
  <advance width="190"/>
  <unicode hex="02DA"/>
  <outline>
    <contour>
      <point x="176" y="543"/>
      <point x="188" y="525"/>
      <point x="216" y="525" type="curve" smooth="yes"/>
      <point x="241" y="525"/>
      <point x="267" y="543"/>
      <point x="273" y="569" type="curve"/>
      <point x="280" y="595"/>
      <point x="264" y="615"/>
      <point x="239" y="615" type="curve" smooth="yes"/>
      <point x="212" y="615"/>
      <point x="189" y="597"/>
      <point x="183" y="570" type="curve"/>
    </contour>
    <contour>
      <point x="172" y="604"/>
      <point x="209" y="634"/>
      <point x="244" y="634" type="curve" smooth="yes"/>
      <point x="279" y="634"/>
      <point x="300" y="604"/>
      <point x="291" y="569" type="curve" smooth="yes"/>
      <point x="283" y="534"/>
      <point x="247" y="507"/>
      <point x="212" y="507" type="curve" smooth="yes"/>
      <point x="177" y="507"/>
      <point x="155" y="534"/>
      <point x="163" y="569" type="curve" smooth="yes"/>
    </contour>
    <contour>
      <point x="124" y="519"/>
      <point x="154" y="479"/>
      <point x="205" y="479" type="curve" smooth="yes"/>
      <point x="254" y="479"/>
      <point x="307" y="519"/>
      <point x="319" y="569" type="curve" smooth="yes"/>
      <point x="332" y="619"/>
      <point x="299" y="661"/>
      <point x="250" y="661" type="curve" smooth="yes"/>
      <point x="199" y="661"/>
      <point x="149" y="619"/>
      <point x="136" y="569" type="curve" smooth="yes"/>
    </contour>
    <contour>
      <point x="212" y="580"/>
      <point x="222" y="588"/>
      <point x="232" y="588" type="curve" smooth="yes"/>
      <point x="242" y="588"/>
      <point x="248" y="579"/>
      <point x="245" y="569" type="curve"/>
      <point x="243" y="559"/>
      <point x="233" y="553"/>
      <point x="223" y="553" type="curve" smooth="yes"/>
      <point x="212" y="553"/>
      <point x="207" y="559"/>
      <point x="210" y="570" type="curve"/>
    </contour>
  </outline>
</glyph>
<glyph name="tilde" format="1">
  <advance width="317"/>
  <unicode hex="02DC"/>
  <outline>
    <contour>
      <point x="422" y="631" type="line"/>
      <point x="405" y="625"/>
      <point x="387" y="619"/>
      <point x="371" y="619" type="curve" smooth="yes"/>
      <point x="324" y="619"/>
      <point x="300" y="658"/>
      <point x="257" y="658" type="curve" smooth="yes"/>
      <point x="237" y="658"/>
      <point x="217" y="649"/>
      <point x="200" y="635" type="curve"/>
      <point x="189" y="650" type="line"/>
      <point x="210" y="663"/>
      <point x="236" y="678"/>
      <point x="260" y="678" type="curve" smooth="yes"/>
      <point x="309" y="678"/>
      <point x="335" y="638"/>
      <point x="378" y="638" type="curve" smooth="yes"/>
      <point x="387" y="638"/>
      <point x="400" y="644"/>
      <point x="410" y="647" type="curve"/>
    </contour>
    <contour>
      <point x="425" y="682" type="line"/>
      <point x="408" y="673" type="line"/>
      <point x="399" y="669"/>
      <point x="389" y="666"/>
      <point x="385" y="666" type="curve" smooth="yes"/>
      <point x="370" y="666"/>
      <point x="356" y="674"/>
      <point x="340" y="682" type="curve"/>
      <point x="341" y="682" type="line"/>
      <point x="319" y="693"/>
      <point x="297" y="705"/>
      <point x="266" y="705" type="curve" smooth="yes"/>
      <point x="234" y="705"/>
      <point x="188" y="678"/>
      <point x="148" y="654" type="curve"/>
      <point x="190" y="597" type="line"/>
      <point x="216" y="617"/>
      <point x="238" y="631"/>
      <point x="250" y="631" type="curve" smooth="yes"/>
      <point x="265" y="631"/>
      <point x="278" y="622"/>
      <point x="293" y="614" type="curve"/>
      <point x="313" y="602"/>
      <point x="333" y="591"/>
      <point x="364" y="591" type="curve" smooth="yes"/>
      <point x="385" y="591"/>
      <point x="428" y="606"/>
      <point x="465" y="619" type="curve"/>
    </contour>
  </outline>
</glyph>
<glyph name="quoteleft" format="1">
  <advance width="101"/>
  <unicode hex="2018"/>
  <outline>
    <contour>
      <point x="187" y="647" type="line"/>
      <point x="205" y="647" type="line"/>
      <point x="187" y="576" type="line"/>
      <point x="169" y="576" type="line"/>
    </contour>
    <contour>
      <point x="167" y="674" type="line"/>
      <point x="135" y="548" type="line"/>
      <point x="208" y="548" type="line"/>
      <point x="240" y="674" type="line"/>
    </contour>
  </outline>
</glyph>
<glyph name="quotesinglbase" format="1">
  <advance width="99"/>
  <unicode hex="201A"/>
  <outline>
    <contour>
      <point x="-5" y="-11" type="line"/>
      <point x="35" y="57" type="line"/>
      <point x="57" y="57" type="line"/>
      <point x="10" y="-11" type="line"/>
    </contour>
    <contour>
      <point x="22" y="-39" type="line"/>
      <point x="104" y="84" type="line"/>
      <point x="22" y="84" type="line"/>
      <point x="-52" y="-39" type="line"/>
    </contour>
  </outline>
</glyph>
<glyph name="quotedblright" format="1">
  <advance width="191"/>
  <unicode hex="201D"/>
  <outline>
    <contour>
      <point x="197" y="647" type="line"/>
      <point x="215" y="647" type="line"/>
      <point x="197" y="576" type="line"/>
      <point x="179" y="576" type="line"/>
    </contour>
    <contour>
      <point x="177" y="674" type="line"/>
      <point x="145" y="548" type="line"/>
      <point x="218" y="548" type="line"/>
      <point x="250" y="674" type="line"/>
    </contour>
    <contour>
      <point x="297" y="647" type="line"/>
      <point x="315" y="647" type="line"/>
      <point x="297" y="576" type="line"/>
      <point x="279" y="576" type="line"/>
    </contour>
    <contour>
      <point x="277" y="674" type="line"/>
      <point x="245" y="548" type="line"/>
      <point x="318" y="548" type="line"/>
      <point x="350" y="674" type="line"/>
    </contour>
  </outline>
</glyph>
<glyph name="quotedblbase" format="1">
  <advance width="248"/>
  <unicode hex="201E"/>
  <outline>
    <contour>
      <point x="128" y="-11" type="line"/>
      <point x="169" y="57" type="line"/>
      <point x="190" y="57" type="line"/>
      <point x="144" y="-11" type="line"/>
    </contour>
    <contour>
      <point x="-4" y="-11" type="line"/>
      <point x="37" y="57" type="line"/>
      <point x="58" y="57" type="line"/>
      <point x="12" y="-11" type="line"/>
    </contour>
    <contour>
      <point x="23" y="-39" type="line"/>
      <point x="105" y="84" type="line"/>
      <point x="24" y="84" type="line"/>
      <point x="-50" y="-39" type="line"/>
    </contour>
    <contour>
      <point x="155" y="-39" type="line"/>
      <point x="238" y="84" type="line"/>
      <point x="156" y="84" type="line"/>
      <point x="84" y="-39" type="line"/>
    </contour>
  </outline>
</glyph>
<glyph name="guilsinglleft" format="1">
  <advance width="395"/>
  <unicode hex="2039"/>
  <outline>
    <contour>
      <point x="471" y="647" type="line"/>
      <point x="149" y="337" type="line"/>
      <point x="316" y="28" type="line"/>
      <point x="294" y="28" type="line"/>
      <point x="128" y="337" type="line"/>
      <point x="449" y="647" type="line"/>
    </contour>
    <contour>
      <point x="442" y="674" type="line"/>
      <point x="92" y="337" type="line"/>
      <point x="275" y="0" type="line"/>
      <point x="367" y="0" type="line"/>
      <point x="185" y="337" type="line"/>
      <point x="535" y="674" type="line"/>
    </contour>
  </outline>
</glyph>
<glyph name="fraction" format="1">
  <advance width="353"/>
  <unicode hex="2044"/>
  <outline>
    <contour>
      <point x="472" y="647" type="line"/>
      <point x="69" y="28" type="line"/>
      <point x="50" y="28" type="line"/>
      <point x="452" y="647" type="line"/>
    </contour>
    <contour>
      <point x="440" y="674" type="line"/>
      <point x="3" y="0" type="line"/>
      <point x="81" y="0" type="line"/>
      <point x="519" y="674" type="line"/>
    </contour>
  </outline>
</glyph>
<glyph name="Euro" format="1">
  <advance width="386"/>
  <unicode hex="20AC"/>
  <outline>
    <contour>
      <point x="271" y="224" type="line"/>
      <point x="120" y="224" type="line"/>
      <point x="99" y="139"/>
      <point x="88" y="46"/>
      <point x="197" y="46" type="curve" smooth="yes"/>
      <point x="228" y="46"/>
      <point x="271" y="57"/>
      <point x="296" y="84" type="curve"/>
      <point x="302" y="81"/>
      <point x="307" y="78"/>
      <point x="314" y="78" type="curve"/>
      <point x="282" y="47"/>
      <point x="231" y="28"/>
      <point x="192" y="28" type="curve" smooth="yes"/>
      <point x="69" y="28"/>
      <point x="77" y="122"/>
      <point x="102" y="224" type="curve"/>
      <point x="46" y="224" type="line"/>
      <point x="51" y="242" type="line"/>
      <point x="107" y="242" type="line"/>
      <point x="144" y="393" type="line"/>
      <point x="88" y="393" type="line"/>
      <point x="93" y="411" type="line"/>
      <point x="149" y="411" type="line"/>
      <point x="176" y="519"/>
      <point x="202" y="647"/>
      <point x="347" y="647" type="curve" smooth="yes"/>
      <point x="380" y="647"/>
      <point x="421" y="635"/>
      <point x="437" y="609" type="curve"/>
      <point x="421" y="596" type="line"/>
      <point x="403" y="616"/>
      <point x="372" y="629"/>
      <point x="342" y="629" type="curve" smooth="yes"/>
      <point x="258" y="629"/>
      <point x="205" y="563"/>
      <point x="186" y="486" type="curve" smooth="yes"/>
      <point x="167" y="411" type="line"/>
      <point x="318" y="411" type="line"/>
      <point x="313" y="393" type="line"/>
      <point x="162" y="393" type="line"/>
      <point x="125" y="242" type="line"/>
      <point x="276" y="242" type="line"/>
    </contour>
    <contour>
      <point x="311" y="270" type="line"/>
      <point x="159" y="270" type="line"/>
      <point x="183" y="366" type="line"/>
      <point x="335" y="366" type="line"/>
      <point x="353" y="438" type="line"/>
      <point x="201" y="438" type="line"/>
      <point x="213" y="486" type="line" smooth="yes"/>
      <point x="228" y="548"/>
      <point x="271" y="602"/>
      <point x="336" y="602" type="curve" smooth="yes"/>
      <point x="360" y="602"/>
      <point x="390" y="585"/>
      <point x="413" y="558" type="curve"/>
      <point x="475" y="608" type="line"/>
      <point x="446" y="653"/>
      <point x="394" y="674"/>
      <point x="354" y="674" type="curve" smooth="yes"/>
      <point x="193" y="674"/>
      <point x="156" y="553"/>
      <point x="128" y="438" type="curve"/>
      <point x="72" y="438" type="line"/>
      <point x="54" y="366" type="line"/>
      <point x="110" y="366" type="line"/>
      <point x="86" y="270" type="line"/>
      <point x="30" y="270" type="line"/>
      <point x="12" y="197" type="line"/>
      <point x="68" y="197" type="line"/>
      <point x="45" y="91"/>
      <point x="50" y="0"/>
      <point x="186" y="0" type="curve" smooth="yes"/>
      <point x="232" y="0"/>
      <point x="292" y="22"/>
      <point x="358" y="88" type="curve"/>
      <point x="359" y="86"/>
      <point x="308" y="112"/>
      <point x="297" y="118" type="curve"/>
      <point x="266" y="86"/>
      <point x="229" y="73"/>
      <point x="204" y="73" type="curve" smooth="yes"/>
      <point x="130" y="73"/>
      <point x="128" y="133"/>
      <point x="141" y="197" type="curve"/>
      <point x="293" y="197" type="line"/>
    </contour>
  </outline>
</glyph>
<glyph name="minus" format="1">
  <advance width="319"/>
  <unicode hex="2212"/>
  <outline>
    <contour>
      <point x="114" y="328" type="line"/>
      <point x="119" y="345" type="line"/>
      <point x="335" y="345" type="line"/>
      <point x="330" y="328" type="line"/>
    </contour>
    <contour>
      <point x="350" y="300" type="line"/>
      <point x="368" y="373" type="line"/>
      <point x="97" y="373" type="line"/>
      <point x="79" y="300" type="line"/>
    </contour>
  </outline>
</glyph>
